# xmcd
#
# Track frame offsets: 
#        150
#        20977
#        39600
#        54242
#        72022
#        88455
#        112330
#        122822
#        141577
#        155407
#        169592
#        182997
#        205442
#        230002
#        241425
#        255145
#
# Disc length: 3653 seconds
#
# Revision: 7
# Processed by: cddbd v1.5.2PL0 Copyright (c) Steve Scherf et al.
# Submitted via: ExactAudioCopyFreeDBPlugin 1.0
#
DISCID=f10e4310
DTITLE=Keb' Mo' - Martin Scorsese Presents The Blues
DYEAR=2003
DGENRE=Blues
TTITLE0=Soon As I Get Paid
TTITLE1=Come On In My Kitchen
TTITLE2=Perpetual Blues Machine
TTITLE3=Don't Try To Explain
TTITLE4=I'm On Your Side
TTITLE5=Henry
TTITLE6=Am I Wrong
TTITLE7=A Letter To Tracy
TTITLE8=Love In Vain
TTITLE9=Dirty Low Down And Bad
TTITLE10=Every Morning
TTITLE11=Dangerous Mood
TTITLE12=It Hurts Me Too
TTITLE13=Crapped Out Again
TTITLE14=Love Blues
TTITLE15=Peace Of Mind
EXTD=YEAR: 2003
EXTT0=
EXTT1=
EXTT2=
EXTT3=
EXTT4=
EXTT5=
EXTT6=
EXTT7=
EXTT8=
EXTT9=
EXTT10=
EXTT11=
EXTT12=
EXTT13=
EXTT14=
EXTT15=
PLAYORDER=
